<?xml version="1.0" encoding="UTF-8"?>
<svg width="75px" height="14px" viewBox="0 0 75 14" version="1.1" xmlns="http://www.w3.org/2000/svg" xmlns:xlink="http://www.w3.org/1999/xlink">
    <title>oxxo-pay</title>
    <g id="SDK-iOS-/-Android" stroke="none" stroke-width="1" fill="none" fill-rule="evenodd">
        <g id="sdk-ios-push-metodo-1" transform="translate(-184.000000, -213.000000)">
            <g id="Group-Copy" transform="translate(42.000000, 137.000000)">
                <g id="pago-tarjeta-copy-2" transform="translate(0.000000, 60.000000)">
                    <g id="oxxo-pay" transform="translate(142.000000, 16.000000)">
                        <rect id="Rectangle" x="0" y="0" width="75" height="14"></rect>
                        <polygon id="Fill-1" fill="#1B4F72" points="38.0149254 14 38.7014925 14 38.7014925 0 38.0149254 0"></polygon>
                        <path d="M49.6115369,6.55498282 C49.2070503,6.97773794 49.0456819,7.04616764 48.8065978,7.07470492 C48.3757746,7.1261019 47.0704412,7.07470492 47.0704412,7.07470492 L47.8219461,4.64761691 C47.8219461,4.64761691 48.934018,4.59218587 49.2989237,4.64761691 C49.5221754,4.68153294 49.8706398,4.82563873 50.0001912,5.20708203 C50.1297427,5.58860003 50.0615417,6.08449126 49.6115369,6.55498282 Z M53.1079793,4.16442552 C53.0821756,3.57948603 52.5638938,2.94367249 51.9160605,2.63850291 C51.2682272,2.33333333 50.9055289,2.33333333 50.9055289,2.33333333 L45.489792,2.33333333 L42.8208955,11.6666667 L45.8266866,11.6666667 L46.5522355,9.07268788 C47.2519046,9.27610937 49.2212081,9.09808755 50.0244726,8.84379202 C50.8277371,8.58949649 51.5274062,8.36060063 52.3565506,7 C53.1857711,5.63947408 53.1339353,4.74936501 53.1079793,4.16442552 L53.1079793,4.16442552 Z" id="Fill-3" fill="#1B4F72"></path>
                        <polyline id="Fill-4" fill="#1B4F72" points="61.7014925 2.66666667 63.6210754 8.54268528 62.6613221 11.6666667 65.8001231 11.6666667 66.6820751 8.54268528 72 2.66666667 68.5498411 2.66666667 66.007695 5.76588576 64.9959725 2.66666667 61.7014925 2.66666667"></polyline>
                        <path d="M55.8004449,8.36060063 L57.4703571,5.86119827 L57.8357343,8.36060063 L55.8004449,8.36060063 Z M60.0535206,2.33333333 L56.9485431,2.33333333 L50.3731343,11.5649933 L53.608642,11.5649933 L54.5218932,10.2424922 L58.0183845,10.2424922 L58.148838,11.6666667 L61.358209,11.6666667 L60.0535206,2.33333333 L60.0535206,2.33333333 Z" id="Fill-21" fill="#1B4F72"></path>
                        <g id="Group-26" transform="translate(3.000000, 0.000000)" fill="#E39E39">
                            <path d="M0,0.945875852 C0,0.425625609 0.437721718,0 0.972757265,0 L30.2661249,0 C30.8011605,0 31.238806,0.425625609 31.238806,0.945875852 L31.238806,13.0541982 C31.238806,13.5744485 30.8011605,14 30.2661249,14 L0.972757265,14 C0.437721718,14 0,13.5744485 0,13.0541982 L0,0.945875852" id="Fill-25"></path>
                        </g>
                        <polygon id="Fill-27" fill="#FFFFFE" points="3 12.6666667 34.238806 12.6666667 34.238806 1.33333333 3 1.33333333"></polygon>
                        <path d="M29.6045911,4.33333333 C28.1861545,4.33333333 27.0298507,5.45629186 27.0298507,6.8334802 C27.0298507,8.21030137 28.1861545,9.33333333 29.6045911,9.33333333 C31.0228007,9.33333333 32.1791045,8.21030137 32.1791045,6.8334802 C32.1791045,5.45629186 31.0228007,4.33333333 29.6045911,4.33333333" id="Fill-28" fill="#D8232A"></path>
                        <path d="M7.97795226,4.33333333 C6.55940611,4.33333333 5.40298507,5.45629186 5.40298507,6.8334802 C5.40298507,8.21030137 6.55940611,9.33333333 7.97795226,9.33333333 C9.39581777,9.33333333 10.5522388,8.21030137 10.5522388,6.8334802 C10.5522388,5.45629186 9.39581777,4.33333333 7.97795226,4.33333333" id="Fill-29" fill="#D8232A"></path>
                        <path d="M29.4740862,10.8639174 C27.2164358,10.8639174 25.3751698,9.04626035 25.3751698,6.817206 C25.3751698,4.58792594 27.2164358,2.77041942 29.4740862,2.77041942 C31.731889,2.77041942 33.5726978,4.58792594 33.5726978,6.817206 C33.5726978,9.04626035 31.731889,10.8639174 29.4740862,10.8639174 Z M12.1891079,6.817206 C12.1891079,9.04626035 10.3482229,10.8639174 8.09072492,10.8639174 C5.83261733,10.8639174 3.99173232,9.04626035 3.99173232,6.817206 C3.99173232,4.58792594 5.83261733,2.77041942 8.09072492,2.77041942 C10.3482229,2.77041942 12.1891079,4.58792594 12.1891079,6.817206 Z M29.2704663,2.00141937 C26.8688647,1.94694759 25.7397347,3.46741741 24.1010978,5.34270615 L22.5552787,7.1113837 L25.0031368,10.0046326 C25.586334,10.8936361 24.473207,11.775793 23.7827132,10.9624029 L21.5195761,8.29697246 L19.3142024,10.8210321 C18.6118968,11.6244908 17.5114961,10.7269103 18.1071908,9.84633339 L20.5012482,7.09769051 L18.9327962,5.25039003 L19.9417508,4.01672465 L21.5368746,5.90849036 L22.9118421,4.32933548 C23.5864852,3.55506882 24.2745405,2.52905828 25.166368,2.00141937 L3,2.00141937 L3,12 L8.18255198,12 C10.5844585,12 11.6748763,10.5821538 13.2690856,8.67022452 L14.7734492,6.8662607 L12.2581496,4.02989117 C11.6549106,3.1544304 12.7467763,2.24729474 13.4563214,3.04473447 L15.7808036,5.65810075 L17.9271946,3.08430927 C18.6103727,2.26467455 19.7312725,3.13742678 19.156458,4.03139592 L16.8270987,6.83413439 L18.4384541,8.64524575 L17.4231745,9.83218878 L15.8193633,8.04628191 L14.4818125,9.65598312 C13.8253062,10.4453725 13.1607221,11.4522727 12.281316,12 L34.238806,12 L34.238806,2.00141937 L29.2704663,2.00141937 L29.2704663,2.00141937 Z" id="Fill-30" fill="#D8232A"></path>
                    </g>
                </g>
            </g>
        </g>
    </g>
</svg>